<svg width="24" height="24" viewBox="0 0 24 24" fill="none" xmlns="http://www.w3.org/2000/svg">
<path d="M10.077 2.6139C10.415 1.8539 11.456 1.8169 11.864 2.4999L11.923 2.6139L12.965 4.9589C13.8749 7.00582 15.388 8.72617 17.302 9.8899L17.624 10.0789L19.474 11.1189C19.6211 11.2012 19.7452 11.3191 19.8351 11.4617C19.925 11.6043 19.9777 11.7671 19.9886 11.9353C19.9994 12.1035 19.968 12.2717 19.8971 12.4246C19.8263 12.5776 19.7183 12.7104 19.583 12.8109L19.475 12.8809L17.624 13.9209C15.6714 15.0193 14.1007 16.6876 13.122 18.7029L12.965 19.0409L11.923 21.3859C11.585 22.1459 10.544 22.1829 10.136 21.4999L10.077 21.3859L9.03502 19.0409C8.12515 16.994 6.61204 15.2736 4.69802 14.1099L4.37602 13.9209L2.52602 12.8809C2.37895 12.7986 2.25482 12.6807 2.16495 12.5381C2.07508 12.3956 2.02232 12.2327 2.01149 12.0645C2.00065 11.8963 2.03208 11.7281 2.10292 11.5752C2.17375 11.4222 2.28173 11.2894 2.41702 11.1889L2.52502 11.1189L4.37602 10.0789C6.32864 8.98055 7.89934 7.31216 8.87802 5.2969L9.03502 4.9589L10.077 2.6139ZM19.221 2.1209C19.7173 3.24858 20.5638 4.18627 21.635 4.7949C21.795 4.8849 21.795 5.1149 21.635 5.2049C20.5633 5.81362 19.7164 6.7517 19.22 7.8799C19.201 7.92237 19.1701 7.95843 19.1311 7.98374C19.0921 8.00905 19.0465 8.02251 19 8.02251C18.9535 8.02251 18.908 8.00905 18.8689 7.98374C18.8299 7.95843 18.799 7.92237 18.78 7.8799C18.2835 6.75207 17.4366 5.81436 16.365 5.2059C16.3289 5.18527 16.2988 5.15544 16.2779 5.11944C16.257 5.08344 16.2459 5.04254 16.2459 5.0009C16.2459 4.95927 16.257 4.91837 16.2779 4.88237C16.2988 4.84636 16.3289 4.81653 16.365 4.7959C17.4369 4.18693 18.2839 3.24847 18.78 2.1199C18.799 2.07743 18.8299 2.04137 18.8689 2.01607C18.908 1.99076 18.9535 1.97729 19 1.97729C19.0465 1.97729 19.0921 1.99076 19.1311 2.01607C19.1701 2.04137 19.201 2.07743 19.22 2.1199L19.221 2.1209Z" fill="#2D465D"/>
</svg>
