<svg width="20" height="20" viewBox="0 0 20 20" fill="none" xmlns="http://www.w3.org/2000/svg">
<g clip-path="url(#clip0_64_99)">
<path d="M11.078 0C11.372 0 11.635 0.183 11.734 0.457L12.44 2.414C12.6927 2.47667 12.9107 2.54067 13.094 2.606C13.294 2.67733 13.554 2.78733 13.874 2.936L15.518 2.066C15.6521 1.99458 15.8058 1.96874 15.9559 1.99237C16.106 2.016 16.2443 2.08783 16.35 2.197L17.796 3.692C17.988 3.891 18.042 4.182 17.934 4.436L17.163 6.243C17.2903 6.47767 17.393 6.679 17.471 6.847C17.555 7.029 17.659 7.28233 17.783 7.607L19.58 8.377C19.85 8.492 20.017 8.762 19.999 9.051L19.867 11.126C19.858 11.2608 19.8096 11.39 19.7278 11.4975C19.646 11.6051 19.5345 11.6863 19.407 11.731L17.705 12.336C17.6563 12.5707 17.605 12.7727 17.551 12.942C17.4636 13.2044 17.3642 13.4627 17.253 13.716L18.108 15.606C18.1688 15.7387 18.1853 15.8875 18.1551 16.0303C18.1248 16.1731 18.0494 16.3024 17.94 16.399L16.314 17.851C16.2071 17.9466 16.0735 18.0071 15.9311 18.0243C15.7887 18.0414 15.6445 18.0145 15.518 17.947L13.842 17.059C13.5801 17.1984 13.3095 17.321 13.032 17.426L12.3 17.7L11.65 19.5C11.6014 19.6315 11.5144 19.7454 11.4002 19.8269C11.2861 19.9084 11.1502 19.9537 11.01 19.957L9.11 20C8.96606 20.0033 8.82458 19.9622 8.70486 19.8822C8.58514 19.8022 8.493 19.6873 8.441 19.553L7.675 17.526C7.41371 17.4365 7.15495 17.3398 6.899 17.236C6.68972 17.1454 6.4836 17.0477 6.281 16.943L4.381 17.755C4.25586 17.8087 4.11778 17.8247 3.98368 17.801C3.84957 17.7774 3.72527 17.7152 3.626 17.622L2.22 16.303C2.11493 16.2055 2.04337 16.0773 2.01553 15.9366C1.98769 15.796 2.00501 15.6502 2.065 15.52L2.882 13.74C2.77373 13.529 2.673 13.3142 2.58 13.096C2.47167 12.8288 2.37163 12.5584 2.28 12.285L0.490001 11.74C0.344502 11.696 0.217596 11.6052 0.128991 11.4817C0.0403864 11.3582 -0.00495751 11.2089 1.25819e-06 11.057L0.0700013 9.136C0.0752014 9.01072 0.114443 8.88922 0.183509 8.78456C0.252576 8.6799 0.348855 8.59605 0.462001 8.542L2.34 7.64C2.42667 7.32133 2.50333 7.072 2.57 6.892C2.66435 6.65025 2.76912 6.4127 2.884 6.18L2.07 4.46C2.00776 4.32948 1.98874 4.18252 2.01572 4.04045C2.04269 3.89839 2.11425 3.76862 2.22 3.67L3.624 2.344C3.72229 2.25095 3.84545 2.1884 3.97856 2.1639C4.11167 2.13941 4.24903 2.15403 4.374 2.206L6.272 2.99C6.48133 2.85067 6.672 2.736 6.844 2.646C7.04867 2.538 7.32333 2.42267 7.668 2.3L8.328 0.459C8.37729 0.324592 8.4666 0.208527 8.5839 0.126454C8.7012 0.0443815 8.84084 0.000246609 8.984 0L11.078 0ZM10.024 7.019C8.357 7.019 7.006 8.354 7.006 10.002C7.006 11.65 8.357 12.986 10.024 12.986C11.691 12.986 13.041 11.65 13.041 10.002C13.041 8.354 11.691 7.019 10.024 7.019Z" fill="#2D465D"/>
</g>
<defs>
<clipPath id="clip0_64_99">
<rect width="20" height="20" fill="white"/>
</clipPath>
</defs>
</svg>
